<svg width="38" height="38" viewBox="0 0 38 38" fill="none" xmlns="http://www.w3.org/2000/svg">
<path d="M22.6201 10.5547C23.1998 10.8292 23.4472 11.5218 23.1726 12.1015L20.1897 18.3996L26.4877 21.3825C27.0674 21.6571 27.3148 22.3496 27.0402 22.9294C26.7657 23.5091 26.0731 23.7564 25.4934 23.4819L19.1953 20.4989L16.2124 26.797C15.9378 27.3767 15.2453 27.624 14.6655 27.3495C14.0858 27.0749 13.8385 26.3824 14.113 25.8026L17.096 19.5046L10.7979 16.5216C10.2182 16.2471 9.97086 15.5545 10.2454 14.9748C10.52 14.3951 11.2125 14.1477 11.7923 14.4223L18.0903 17.4052L21.0733 11.1072C21.3479 10.5275 22.0404 10.2801 22.6201 10.5547Z" fill="#E7E7E7"/>
</svg>
