<svg width="134" height="41" viewBox="0 0 134 41" fill="none" xmlns="http://www.w3.org/2000/svg">
<g clip-path="url(#clip0_102_470)">
<rect x="0.241089" y="0.213745" width="133.402" height="39.8214" rx="3.31845" fill="#5454D4"/>
<path d="M38.2329 25.6358C37.2108 25.6358 36.3327 25.4314 35.5987 25.0226C34.8739 24.6045 34.3164 24.0191 33.9262 23.2665C33.5359 22.5045 33.3408 21.6079 33.3408 20.5765C33.3408 19.5451 33.5359 18.6531 33.9262 17.9005C34.3164 17.1479 34.8739 16.5672 35.5987 16.1583C36.3327 15.7402 37.2108 15.5311 38.2329 15.5311C38.8926 15.5311 39.5151 15.6334 40.1005 15.8378C40.6952 16.0422 41.183 16.3349 41.5639 16.7158L40.9786 18.1375C40.5604 17.7844 40.133 17.5289 39.6963 17.3709C39.2596 17.2036 38.7904 17.12 38.2886 17.12C37.2944 17.12 36.5371 17.422 36.0168 18.026C35.4965 18.6206 35.2363 19.4708 35.2363 20.5765C35.2363 21.6822 35.4965 22.5371 36.0168 23.141C36.5371 23.745 37.2944 24.047 38.2886 24.047C38.7904 24.047 39.2596 23.968 39.6963 23.81C40.133 23.6428 40.5604 23.3826 40.9786 23.0295L41.5639 24.4511C41.183 24.8228 40.6952 25.1155 40.1005 25.3292C39.5151 25.5336 38.8926 25.6358 38.2329 25.6358ZM45.5717 25.6358C44.8656 25.6358 44.2523 25.4918 43.732 25.2038C43.2116 24.9157 42.8075 24.5069 42.5194 23.9773C42.2314 23.4384 42.0873 22.8065 42.0873 22.0818C42.0873 21.357 42.2314 20.7298 42.5194 20.2002C42.8075 19.6706 43.2116 19.2618 43.732 18.9737C44.2523 18.6857 44.8656 18.5416 45.5717 18.5416C46.2779 18.5416 46.8911 18.6857 47.4115 18.9737C47.9318 19.2618 48.336 19.6706 48.624 20.2002C48.9121 20.7298 49.0561 21.357 49.0561 22.0818C49.0561 22.8065 48.9121 23.4384 48.624 23.9773C48.336 24.5069 47.9318 24.9157 47.4115 25.2038C46.8911 25.4918 46.2779 25.6358 45.5717 25.6358ZM45.5717 24.3118C46.0921 24.3118 46.5102 24.1259 46.8261 23.7543C47.142 23.3733 47.3 22.8158 47.3 22.0818C47.3 21.3384 47.142 20.7856 46.8261 20.4232C46.5102 20.0515 46.0921 19.8657 45.5717 19.8657C45.0514 19.8657 44.6333 20.0515 44.3173 20.4232C44.0014 20.7856 43.8435 21.3384 43.8435 22.0818C43.8435 22.8158 44.0014 23.3733 44.3173 23.7543C44.6333 24.1259 45.0514 24.3118 45.5717 24.3118ZM50.4941 25.4965V18.681H52.1944V19.7403C52.4267 19.35 52.738 19.0527 53.1282 18.8483C53.5278 18.6439 53.9738 18.5416 54.4662 18.5416C56.0737 18.5416 56.8774 19.4755 56.8774 21.3431V25.4965H55.1352V21.4267C55.1352 20.8971 55.033 20.5115 54.8286 20.2699C54.6335 20.0283 54.3269 19.9075 53.9087 19.9075C53.3977 19.9075 52.9889 20.0701 52.6822 20.3953C52.3849 20.7113 52.2362 21.134 52.2362 21.6636V25.4965H50.4941ZM61.7689 25.6358C59.9664 25.6358 59.0651 24.7438 59.0651 22.9598V19.9911H57.7549V18.681H59.0651V16.6461H60.8073V18.681H62.87V19.9911H60.8073V22.8623C60.8073 23.3083 60.9048 23.6428 61.0999 23.8658C61.2951 24.0888 61.611 24.2003 62.0477 24.2003C62.1778 24.2003 62.3125 24.1863 62.4519 24.1585C62.5913 24.1213 62.7353 24.0841 62.8839 24.047L63.1488 25.3292C62.9815 25.4221 62.7678 25.4965 62.5076 25.5522C62.2568 25.608 62.0105 25.6358 61.7689 25.6358ZM66.2399 25.6358C65.7475 25.6358 65.3061 25.5429 64.9159 25.3571C64.5349 25.162 64.2329 24.9018 64.0099 24.5766C63.7962 24.2514 63.6894 23.8844 63.6894 23.4755C63.6894 22.9738 63.8195 22.5789 64.0796 22.2908C64.3398 21.9935 64.7626 21.7798 65.3479 21.6497C65.9333 21.5196 66.7185 21.4546 67.7034 21.4546H68.1912V21.1619C68.1912 20.6973 68.089 20.3628 67.8846 20.1584C67.6801 19.954 67.3364 19.8518 66.8532 19.8518C66.4722 19.8518 66.082 19.9122 65.6824 20.033C65.2829 20.1445 64.8787 20.321 64.4699 20.5626L63.9681 19.3779C64.2097 19.2106 64.4931 19.0666 64.8183 18.9458C65.1528 18.8158 65.5013 18.7182 65.8636 18.6531C66.2353 18.5788 66.5837 18.5416 66.9089 18.5416C67.9031 18.5416 68.6418 18.7739 69.125 19.2385C69.6082 19.6938 69.8498 20.4046 69.8498 21.371V25.4965H68.2191V24.4093C68.0611 24.7903 67.8102 25.0923 67.4664 25.3153C67.1226 25.529 66.7138 25.6358 66.2399 25.6358ZM66.6023 24.4372C67.0576 24.4372 67.4339 24.2793 67.7313 23.9633C68.0379 23.6474 68.1912 23.2479 68.1912 22.7647V22.4581H67.7173C66.8439 22.4581 66.2353 22.5278 65.8915 22.6671C65.557 22.7972 65.3898 23.0388 65.3898 23.3919C65.3898 23.6985 65.4966 23.9494 65.7103 24.1445C65.924 24.3396 66.2214 24.4372 66.6023 24.4372ZM74.7679 25.6358C74.0525 25.6358 73.4299 25.4918 72.9003 25.2038C72.3707 24.9064 71.9619 24.4883 71.6738 23.9494C71.3858 23.4105 71.2418 22.7786 71.2418 22.0539C71.2418 21.3291 71.3858 20.7066 71.6738 20.1863C71.9619 19.6566 72.3707 19.2525 72.9003 18.9737C73.4299 18.6857 74.0525 18.5416 74.7679 18.5416C75.2047 18.5416 75.6367 18.6113 76.0641 18.7507C76.4916 18.8901 76.8446 19.0852 77.1234 19.3361L76.6077 20.5486C76.3661 20.3349 76.092 20.1723 75.7854 20.0608C75.4881 19.9493 75.2 19.8936 74.9213 19.8936C74.3173 19.8936 73.8481 20.0841 73.5136 20.465C73.1884 20.8367 73.0258 21.371 73.0258 22.0678C73.0258 22.7554 73.1884 23.299 73.5136 23.6985C73.8481 24.0888 74.3173 24.2839 74.9213 24.2839C75.1907 24.2839 75.4788 24.2281 75.7854 24.1166C76.092 24.0051 76.3661 23.8379 76.6077 23.6149L77.1234 24.8414C76.8446 25.083 76.4869 25.2781 76.0502 25.4268C75.6228 25.5661 75.1954 25.6358 74.7679 25.6358ZM81.3413 25.6358C79.5387 25.6358 78.6375 24.7438 78.6375 22.9598V19.9911H77.3273V18.681H78.6375V16.6461H80.3796V18.681H82.4424V19.9911H80.3796V22.8623C80.3796 23.3083 80.4772 23.6428 80.6723 23.8658C80.8675 24.0888 81.1834 24.2003 81.6201 24.2003C81.7502 24.2003 81.8849 24.1863 82.0243 24.1585C82.1636 24.1213 82.3077 24.0841 82.4563 24.047L82.7211 25.3292C82.5539 25.4221 82.3402 25.4965 82.08 25.5522C81.8291 25.608 81.5829 25.6358 81.3413 25.6358ZM89.7919 25.6358C88.1194 25.6358 87.2832 24.6974 87.2832 22.8205V18.681H89.0253V22.8483C89.0253 23.3315 89.1229 23.6892 89.318 23.9215C89.5132 24.1538 89.8244 24.27 90.2518 24.27C90.7164 24.27 91.0974 24.112 91.3947 23.7961C91.6921 23.4709 91.8407 23.0435 91.8407 22.5138V18.681H93.5829V25.4965H91.8825V24.479C91.4272 25.2502 90.7304 25.6358 89.7919 25.6358ZM97.891 25.6358C97.3149 25.6358 96.776 25.5661 96.2743 25.4268C95.7725 25.2874 95.3544 25.0876 95.0199 24.8275L95.4659 23.6846C95.8097 23.9169 96.1953 24.0981 96.6227 24.2281C97.0501 24.3489 97.4775 24.4093 97.905 24.4093C98.351 24.4093 98.6808 24.335 98.8945 24.1863C99.1175 24.0284 99.229 23.824 99.229 23.5731C99.229 23.1828 98.941 22.932 98.3649 22.8205L96.9711 22.5556C95.7911 22.3326 95.2011 21.7194 95.2011 20.7159C95.2011 20.2699 95.3219 19.8843 95.5635 19.5591C95.8143 19.2339 96.1581 18.983 96.5948 18.8065C97.0315 18.6299 97.5333 18.5416 98.1001 18.5416C98.5832 18.5416 99.0478 18.6113 99.4938 18.7507C99.9398 18.8808 100.321 19.0806 100.637 19.35L100.163 20.4929C99.8934 20.2699 99.5682 20.0934 99.1872 19.9633C98.8155 19.8332 98.4578 19.7681 98.114 19.7681C97.6587 19.7681 97.3196 19.8471 97.0966 20.0051C96.8829 20.163 96.776 20.3721 96.776 20.6323C96.776 21.0411 97.0408 21.292 97.5705 21.3849L98.9642 21.6497C99.5682 21.7612 100.023 21.9656 100.33 22.263C100.646 22.5603 100.804 22.9598 100.804 23.4616C100.804 24.1399 100.539 24.6741 100.01 25.0644C99.4799 25.4454 98.7737 25.6358 97.891 25.6358Z" fill="white"/>
</g>
<defs>
<clipPath id="clip0_102_470">
<rect x="0.241089" y="0.213745" width="133.402" height="39.8214" rx="2.65476" fill="white"/>
</clipPath>
</defs>
</svg>
