<svg width="47" height="47" viewBox="0 0 47 47" fill="none" xmlns="http://www.w3.org/2000/svg">
<path fill-rule="evenodd" clip-rule="evenodd" d="M23.7604 46.559C36.4063 46.559 46.6577 36.3076 46.6577 23.6617C46.6577 11.0159 36.4063 0.764404 23.7604 0.764404C11.1146 0.764404 0.863098 11.0159 0.863098 23.6617C0.863098 36.3076 11.1146 46.559 23.7604 46.559Z" fill="#FEDC5A" fill-opacity="0.1"/>
<path d="M28.8708 29.7457H19.3137C17.9863 29.7457 17.4554 29.1794 17.4554 27.7724V26.852C17.4554 25.445 17.9863 24.8787 19.3137 24.8787H28.8708C30.1982 24.8787 30.7292 25.445 30.7292 26.852V27.7724C30.7292 29.1794 30.1982 29.7457 28.8708 29.7457Z" stroke="#FEDC5A" stroke-width="1.32738" stroke-linecap="round" stroke-linejoin="round"/>
<path d="M27.101 22.2238H21.0835C19.7561 22.2238 19.2252 21.6574 19.2252 20.2504V19.3301C19.2252 17.923 19.7561 17.3567 21.0835 17.3567H27.101C28.4284 17.3567 28.9593 17.923 28.9593 19.3301V20.2504C28.9593 21.6574 28.4284 22.2238 27.101 22.2238Z" stroke="#FEDC5A" stroke-width="1.32738" stroke-linecap="round" stroke-linejoin="round"/>
<path d="M24.0923 32.1792V30.0554" stroke="#FEDC5A" stroke-width="1.32738" stroke-linecap="round" stroke-linejoin="round"/>
<path d="M24.0923 24.2149V22.4451" stroke="#FEDC5A" stroke-width="1.32738" stroke-linecap="round" stroke-linejoin="round"/>
<path d="M24.0923 14.4807V16.8611" stroke="#292D32" stroke-width="1.32738" stroke-linecap="round" stroke-linejoin="round"/>
</svg>
