<svg width="46" height="47" viewBox="0 0 46 47" fill="none" xmlns="http://www.w3.org/2000/svg">
<path fill-rule="evenodd" clip-rule="evenodd" d="M22.9747 46.559C35.6205 46.559 45.872 36.3076 45.872 23.6617C45.872 11.0159 35.6205 0.764404 22.9747 0.764404C10.3288 0.764404 0.0773621 11.0159 0.0773621 23.6617C0.0773621 36.3076 10.3288 46.559 22.9747 46.559Z" fill="#5454D4" fill-opacity="0.1"/>
<path d="M18.6695 32.1791H27.9435C30.3859 32.1791 31.3593 30.6836 31.4743 28.8607L31.9345 21.5512C32.0584 19.6398 30.5363 18.0204 28.616 18.0204C28.0762 18.0204 27.5807 17.7107 27.3329 17.2328L26.6958 15.9497C26.2887 15.1444 25.2268 14.4807 24.3242 14.4807H22.2977C21.3862 14.4807 20.3243 15.1444 19.9173 15.9497L19.2801 17.2328C19.0323 17.7107 18.5368 18.0204 17.997 18.0204C16.0767 18.0204 14.5546 19.6398 14.6785 21.5512L15.1387 28.8607C15.2449 30.6836 16.2271 32.1791 18.6695 32.1791Z" stroke="#5454D4" stroke-width="1.32738" stroke-linecap="round" stroke-linejoin="round"/>
<path d="M21.9791 19.7903H24.6339" stroke="#5454D4" stroke-width="1.32738" stroke-linecap="round" stroke-linejoin="round"/>
<path d="M23.3065 28.6394C24.8905 28.6394 26.1825 27.3475 26.1825 25.7634C26.1825 24.1794 24.8905 22.8875 23.3065 22.8875C21.7225 22.8875 20.4305 24.1794 20.4305 25.7634C20.4305 27.3475 21.7225 28.6394 23.3065 28.6394Z" stroke="#5454D4" stroke-width="1.32738" stroke-linecap="round" stroke-linejoin="round"/>
</svg>
