<svg width="47" height="47" viewBox="0 0 47 47" fill="none" xmlns="http://www.w3.org/2000/svg">
<path fill-rule="evenodd" clip-rule="evenodd" d="M23.189 46.559C35.8348 46.559 46.0863 36.3076 46.0863 23.6617C46.0863 11.0159 35.8348 0.764404 23.189 0.764404C10.5431 0.764404 0.291672 11.0159 0.291672 23.6617C0.291672 36.3076 10.5431 46.559 23.189 46.559Z" fill="#F04037" fill-opacity="0.1"/>
<path d="M32.3701 25.9847V20.6752C32.3701 16.2506 30.6002 14.4807 26.1756 14.4807H20.8661C16.4415 14.4807 14.6716 16.2506 14.6716 20.6752V25.9847C14.6716 30.4093 16.4415 32.1791 20.8661 32.1791H26.1756C30.6002 32.1791 32.3701 30.4093 32.3701 25.9847Z" stroke="#F04037" stroke-width="1.32738" stroke-linecap="round" stroke-linejoin="round"/>
<path d="M15.1318 19.0027H31.9099" stroke="#F04037" stroke-width="1.32738" stroke-linecap="round" stroke-linejoin="round"/>
<path d="M20.4413 14.5781V18.8788" stroke="#F04037" stroke-width="1.32738" stroke-linecap="round" stroke-linejoin="round"/>
<path d="M26.6003 14.5781V18.4806" stroke="#F04037" stroke-width="1.32738" stroke-linecap="round" stroke-linejoin="round"/>
<path d="M21.5298 25.4981V24.4362C21.5298 23.0734 22.4943 22.5159 23.6713 23.1973L24.5916 23.7283L25.5119 24.2592C26.6888 24.9406 26.6888 26.0556 25.5119 26.737L24.5916 27.2679L23.6713 27.7989C22.4943 28.4803 21.5298 27.9228 21.5298 26.56V25.4981V25.4981Z" stroke="#F04037" stroke-width="1.32738" stroke-miterlimit="10" stroke-linecap="round" stroke-linejoin="round"/>
</svg>
