<svg width="46" height="47" viewBox="0 0 46 47" fill="none" xmlns="http://www.w3.org/2000/svg">
<path fill-rule="evenodd" clip-rule="evenodd" d="M22.9747 46.5234C35.6205 46.5234 45.872 36.2719 45.872 23.6261C45.872 10.9802 35.6205 0.72876 22.9747 0.72876C10.3288 0.72876 0.0773621 10.9802 0.0773621 23.6261C0.0773621 36.2719 10.3288 46.5234 22.9747 46.5234Z" fill="#F04037" fill-opacity="0.1"/>
<path d="M24.2003 15.2592L29.4213 17.5777C30.9257 18.2413 30.9257 19.3386 29.4213 20.0023L24.2003 22.3208C23.6074 22.5863 22.634 22.5863 22.0411 22.3208L16.8201 20.0023C15.3157 19.3386 15.3157 18.2413 16.8201 17.5777L22.0411 15.2592C22.634 14.9937 23.6074 14.9937 24.2003 15.2592Z" stroke="#F04037" stroke-width="1.32738" stroke-linecap="round" stroke-linejoin="round"/>
<path d="M15.3422 22.4094C15.3422 23.1528 15.8997 24.0111 16.5811 24.312L22.5897 26.9845C23.0499 27.188 23.572 27.188 24.0233 26.9845L30.0319 24.312C30.7133 24.0111 31.2708 23.1528 31.2708 22.4094" stroke="#F04037" stroke-width="1.32738" stroke-linecap="round" stroke-linejoin="round"/>
<path d="M15.3422 26.834C15.3422 27.657 15.8289 28.4003 16.5811 28.7366L22.5897 31.409C23.0499 31.6126 23.572 31.6126 24.0233 31.409L30.0319 28.7366C30.7841 28.4003 31.2708 27.657 31.2708 26.834" stroke="#F04037" stroke-width="1.32738" stroke-linecap="round" stroke-linejoin="round"/>
</svg>
