<svg width="78" height="11" viewBox="0 0 78 11" fill="none" xmlns="http://www.w3.org/2000/svg">
<path d="M4.77016 10.4155C3.86755 10.4155 3.07554 10.2163 2.39415 9.81813C1.72161 9.41992 1.19951 8.86242 0.827844 8.14563C0.456177 7.42 0.270344 6.57047 0.270344 5.59706C0.270344 4.6148 0.456177 3.76528 0.827844 3.04849C1.19951 2.3317 1.72161 1.77863 2.39415 1.38926C3.06669 0.99105 3.8587 0.791943 4.77016 0.791943C5.68163 0.791943 6.47364 0.99105 7.14618 1.38926C7.81872 1.77863 8.34082 2.3317 8.71249 3.04849C9.08415 3.76528 9.26999 4.61037 9.26999 5.58379C9.26999 6.56605 9.08415 7.42 8.71249 8.14563C8.34082 8.86242 7.81872 9.41992 7.14618 9.81813C6.47364 10.2163 5.68163 10.4155 4.77016 10.4155ZM4.77016 8.95533C5.62854 8.95533 6.29665 8.65889 6.77451 8.06599C7.25237 7.47309 7.4913 6.65012 7.4913 5.59706C7.4913 4.53516 7.25237 3.71218 6.77451 3.12813C6.3055 2.54409 5.63739 2.25206 4.77016 2.25206C3.91179 2.25206 3.24368 2.54409 2.76582 3.12813C2.28796 3.71218 2.04903 4.53516 2.04903 5.59706C2.04903 6.65012 2.28796 7.47309 2.76582 8.06599C3.24368 8.65889 3.91179 8.95533 4.77016 8.95533ZM13.1878 10.4155C11.595 10.4155 10.7985 9.52168 10.7985 7.73414V3.79182H12.4578V7.76069C12.4578 8.22085 12.5507 8.56154 12.7365 8.78277C12.9224 9.004 13.2188 9.11462 13.6259 9.11462C14.0683 9.11462 14.4311 8.96418 14.7143 8.66331C14.9975 8.35359 15.1391 7.94652 15.1391 7.44212V3.79182H16.7983V10.2827H15.1789V9.31373C14.7453 10.0482 14.0816 10.4155 13.1878 10.4155ZM18.5253 10.2827V3.79182H20.1447V4.93337C20.4632 4.16349 21.1446 3.73873 22.1888 3.65909L22.6932 3.61926L22.7994 5.02629L21.8437 5.1192C20.7552 5.22539 20.211 5.78289 20.211 6.7917V10.2827H18.5253ZM30.6858 10.4155C29.9513 10.4155 29.2699 10.3225 28.6417 10.1367C28.0134 9.94202 27.4824 9.68097 27.0488 9.35355L27.5665 8.01289C28.0001 8.32262 28.4735 8.56154 28.9868 8.72968C29.5089 8.89781 30.0752 8.98188 30.6858 8.98188C31.3849 8.98188 31.8937 8.86684 32.2123 8.63676C32.5309 8.39783 32.6902 8.09254 32.6902 7.72087C32.6902 7.41115 32.5751 7.16779 32.345 6.99081C32.1238 6.81383 31.7389 6.66781 31.1902 6.55277L29.7301 6.24748C28.0665 5.89351 27.2346 5.03956 27.2346 3.68563C27.2346 3.10159 27.3895 2.59276 27.6992 2.15914C28.0089 1.72553 28.4381 1.38926 28.9868 1.15034C29.5354 0.911407 30.1681 0.791943 30.8849 0.791943C31.5221 0.791943 32.1194 0.889284 32.6769 1.08397C33.2344 1.2698 33.699 1.53528 34.0706 1.8804L33.553 3.15468C32.8185 2.53524 31.9247 2.22551 30.8717 2.22551C30.2611 2.22551 29.7832 2.35383 29.4381 2.61045C29.093 2.86708 28.9204 3.20335 28.9204 3.61926C28.9204 3.93783 29.0266 4.19446 29.239 4.38914C29.4514 4.57498 29.8142 4.72099 30.3274 4.82718L31.7743 5.13248C32.6503 5.31831 33.3008 5.61033 33.7255 6.00855C34.1591 6.40676 34.3759 6.93772 34.3759 7.60141C34.3759 8.15891 34.2255 8.65004 33.9246 9.0748C33.6238 9.49956 33.1946 9.83141 32.6371 10.0703C32.0884 10.3004 31.438 10.4155 30.6858 10.4155ZM38.8739 10.4155C38.1394 10.4155 37.5067 10.2783 36.9757 10.004C36.4448 9.72964 36.0333 9.34027 35.7413 8.83587C35.4581 8.33147 35.3165 7.73414 35.3165 7.04391C35.3165 6.37137 35.4537 5.78289 35.728 5.27849C36.0112 4.77408 36.3961 4.3803 36.8828 4.09712C37.3784 3.8051 37.9403 3.65909 38.5686 3.65909C39.4889 3.65909 40.2145 3.95111 40.7455 4.53516C41.2853 5.1192 41.5552 5.91563 41.5552 6.92444V7.41557H36.9094C37.0333 8.57482 37.6969 9.15444 38.9004 9.15444C39.2633 9.15444 39.6261 9.10135 39.9889 8.99516C40.3517 8.88012 40.6836 8.70313 40.9844 8.4642L41.449 9.5792C41.1393 9.83583 40.7499 10.0394 40.2809 10.1898C39.8119 10.3402 39.3429 10.4155 38.8739 10.4155ZM38.635 4.78736C38.1483 4.78736 37.7545 4.93779 37.4536 5.23867C37.1527 5.53954 36.9713 5.9466 36.9094 6.45986H40.1747C40.1393 5.92006 39.9889 5.50857 39.7234 5.22539C39.4668 4.93337 39.104 4.78736 38.635 4.78736ZM42.8692 10.2827V3.79182H44.4886V4.93337C44.8072 4.16349 45.4886 3.73873 46.5328 3.65909L47.0372 3.61926L47.1434 5.02629L46.1877 5.1192C45.0992 5.22539 44.555 5.78289 44.555 6.7917V10.2827H42.8692ZM50.3805 10.2827L47.5665 3.79182H49.3319L51.1371 8.33147L53.0087 3.79182H54.668L51.8141 10.2827H50.3805ZM55.3628 2.39807V0.778669H57.2211V2.39807H55.3628ZM55.4689 10.2827V3.79182H57.1282V10.2827H55.4689ZM61.8521 10.4155C61.1707 10.4155 60.5778 10.2783 60.0734 10.004C59.569 9.72079 59.1796 9.32258 58.9053 8.80932C58.631 8.29607 58.4938 7.69432 58.4938 7.00408C58.4938 6.31385 58.631 5.72095 58.9053 5.22539C59.1796 4.72099 59.569 4.33605 60.0734 4.07057C60.5778 3.79625 61.1707 3.65909 61.8521 3.65909C62.268 3.65909 62.6795 3.72545 63.0866 3.85819C63.4936 3.99093 63.8299 4.17676 64.0954 4.41569L63.6042 5.57051C63.3742 5.36698 63.1131 5.21212 62.8211 5.10593C62.5379 4.99974 62.2636 4.94664 61.9981 4.94664C61.4229 4.94664 60.976 5.12805 60.6575 5.49087C60.3477 5.84484 60.1929 6.35367 60.1929 7.01736C60.1929 7.6722 60.3477 8.18988 60.6575 8.57039C60.976 8.94206 61.4229 9.12789 61.9981 9.12789C62.2547 9.12789 62.5291 9.0748 62.8211 8.96861C63.1131 8.86242 63.3742 8.70313 63.6042 8.49075L64.0954 9.65885C63.8299 9.88893 63.4892 10.0748 63.0733 10.2163C62.6662 10.3491 62.2592 10.4155 61.8521 10.4155ZM68.1826 10.4155C67.4481 10.4155 66.8154 10.2783 66.2844 10.004C65.7535 9.72964 65.342 9.34027 65.0499 8.83587C64.7668 8.33147 64.6252 7.73414 64.6252 7.04391C64.6252 6.37137 64.7623 5.78289 65.0367 5.27849C65.3198 4.77408 65.7048 4.3803 66.1915 4.09712C66.687 3.8051 67.249 3.65909 67.8773 3.65909C68.7976 3.65909 69.5232 3.95111 70.0542 4.53516C70.594 5.1192 70.8639 5.91563 70.8639 6.92444V7.41557H66.218C66.3419 8.57482 67.0056 9.15444 68.2091 9.15444C68.5719 9.15444 68.9347 9.10135 69.2976 8.99516C69.6604 8.88012 69.9922 8.70313 70.2931 8.4642L70.7577 9.5792C70.448 9.83583 70.0586 10.0394 69.5896 10.1898C69.1206 10.3402 68.6516 10.4155 68.1826 10.4155ZM67.9436 4.78736C67.4569 4.78736 67.0631 4.93779 66.7623 5.23867C66.4614 5.53954 66.28 5.9466 66.218 6.45986H69.4834C69.448 5.92006 69.2976 5.50857 69.0321 5.22539C68.7755 4.93337 68.4126 4.78736 67.9436 4.78736ZM74.5539 10.4155C74.0052 10.4155 73.492 10.3491 73.0141 10.2163C72.5363 10.0836 72.1381 9.89335 71.8195 9.64557L72.2442 8.55712C72.5717 8.77835 72.9389 8.95091 73.346 9.0748C73.753 9.18984 74.1601 9.24736 74.5672 9.24736C74.9919 9.24736 75.3061 9.17656 75.5096 9.03498C75.722 8.88454 75.8282 8.68986 75.8282 8.45093C75.8282 8.07926 75.5538 7.84033 75.0052 7.73414L73.6778 7.48194C72.554 7.26956 71.992 6.68551 71.992 5.7298C71.992 5.30504 72.1071 4.93779 72.3372 4.62807C72.5761 4.31835 72.9035 4.07942 73.3194 3.91129C73.7353 3.74315 74.2132 3.65909 74.753 3.65909C75.2132 3.65909 75.6556 3.72545 76.0804 3.85819C76.5051 3.98208 76.868 4.17234 77.1688 4.42897L76.7175 5.51742C76.4609 5.30504 76.1512 5.1369 75.7884 5.01301C75.4344 4.88912 75.0937 4.82718 74.7663 4.82718C74.3327 4.82718 74.0097 4.9024 73.7973 5.05283C73.5937 5.20327 73.492 5.40238 73.492 5.65016C73.492 6.03952 73.7442 6.27845 74.2486 6.36694L75.576 6.61914C76.1512 6.72533 76.5848 6.92002 76.8768 7.20319C77.1777 7.48637 77.3281 7.86688 77.3281 8.34474C77.3281 8.99073 77.0759 9.49956 76.5715 9.87123C76.0671 10.234 75.3946 10.4155 74.5539 10.4155Z" fill="white"/>
</svg>
